<svg xmlns="http://www.w3.org/2000/svg" width="23.787" height="23.787" viewBox="0 0 23.787 23.787">
  <g id="Group_283" data-name="Group 283" transform="translate(0 -0.18)">
    <g id="Group_284" data-name="Group 284" transform="translate(0 0.18)">
      <path id="Path_15287" data-name="Path 15287" d="M14.645,2.513a8.579,8.579,0,1,0-.881,12.9l1.906,1.906a.877.877,0,0,0,.177.986l5.117,5.117a1.243,1.243,0,0,0,1.758,0l.7-.7a1.243,1.243,0,0,0,0-1.758l-5.117-5.117a.877.877,0,0,0-.986-.177l-1.906-1.906a8.58,8.58,0,0,0-.769-11.251M13.028,13.028a6.291,6.291,0,1,1,0-8.9,6.291,6.291,0,0,1,0,8.9" transform="translate(-0.001 -0.001)" fill="#fff"/>
    </g>
  </g>
</svg>
